<?xml version="1.0" standalone="yes"?>
<svg width="30" height="30">
<path style="fill:#ffffff; stroke:none;" d="M0 0L0 30L14 30L12 27L19 27L17 29L30 30L30 17L27 19L27 17L21 20L21 16C10.2896 24.2869 8.1958 6.07139 21 13C22.805 10.7198 23.5905 11.4999 26 13L29 13L30 0L17 0L17 4L21 7C23.4131 3.6008 25.3647 6.10221 27 9L4 9C5.60443 6.15539 6.87221 4.25191 10 6L14 4L14 1L0 0z"/>
<path style="fill:#ffcac9; stroke:none;" d="M14 0L17 1L14 0z"/>
<path style="fill:#ffb8b6; stroke:none;" d="M12 1L13 2L12 1z"/>
<path style="fill:#ff2803; stroke:none;" d="M13 1L17 2L13 1z"/>
<path style="fill:#ff726c; stroke:none;" d="M12 2L19 3L12 2z"/>
<path style="fill:#ffb8b6; stroke:none;" d="M18 1L19 2L18 1M14 3L17 4L14 3z"/>
<path style="fill:#ffadab; stroke:none;" d="M6 4L7 5L6 4z"/>
<path style="fill:#ff2803; stroke:none;" d="M5 8L9 8L9 4L5 8z"/>
<path style="fill:#ffdddc; stroke:none;" d="M9 4L10 9C10.6513 6.76586 10.3182 5.92614 9 4z"/>
<path style="fill:#ff6861; stroke:none;" d="M13 4L14 5L13 4z"/>
<path style="fill:#ff2803; stroke:none;" d="M11 8L20 8C17.3214 3.89318 13.5533 3.64424 11 8z"/>
<path style="fill:#ff726c; stroke:none;" d="M17 4L18 5L17 4z"/>
<path style="fill:#ffdddc; stroke:none;" d="M21 4L20 9C21.475 7.06478 21.791 6.3073 21 4z"/>
<path style="fill:#ff2803; stroke:none;" d="M22 4L22 8L26 8L22 4z"/>
<path style="fill:#ffb8b6; stroke:none;" d="M24 4L25 5L24 4z"/>
<path style="fill:#ffa4a2; stroke:none;" d="M5 5L6 6L5 5z"/>
<path style="fill:#ffb8b6; stroke:none;" d="M11 5L12 6L11 5z"/>
<path style="fill:#ffadab; stroke:none;" d="M25 5L26 6L25 5z"/>
<path style="fill:#ff4639; stroke:none;" d="M6.66667 6.33333L7.33333 6.66667L6.66667 6.33333z"/>
<path style="fill:#ff3825; stroke:none;" d="M13 6L18 7L13 6z"/>
<path style="fill:#ff5952; stroke:none;" d="M19 6L20 7L19 6z"/>
<path style="fill:#ffadab; stroke:none;" d="M4 7C5.53979 8.80308 6.59749 8.83196 9 9L4 7M26 7L22 8C23.5531 8.89046 27.0798 9.61558 26 7z"/>
<path style="fill:#ffb8b6; stroke:none;" d="M11 8L20 9L11 8z"/>
<path style="fill:#ffcac9; stroke:none;" d="M2 10L2 19C5.20347 16.6087 5.20347 12.3913 2 10z"/>
<path style="fill:#ffb8b6; stroke:none;" d="M6 10L7 11L6 10z"/>
<path style="fill:#ff5952; stroke:none;" d="M7.66667 10.3333L8.33333 10.6667L7.66667 10.3333z"/>
<path style="fill:#ff4639; stroke:none;" d="M13 10L17 11L13 10z"/>
<path style="fill:#ff928e; stroke:none;" d="M17 10L18 11L17 10z"/>
<path style="fill:#ffcac9; stroke:none;" d="M21 10C20.282 13.8837 19.2328 18.9837 24 20L21 10z"/>
<path style="fill:#ff2803; stroke:none;" d="M22 10L22 19C26.5249 16.497 26.1761 12.7166 22 10z"/>
<path style="fill:#ff8a86; stroke:none;" d="M23 10L24 11L23 10z"/>
<path style="fill:#ff6861; stroke:none;" d="M2 11L3 12L2 11z"/>
<path style="fill:#ffa4a2; stroke:none;" d="M5 11L6 12L5 11z"/>
<path style="fill:#ff2803; stroke:none;" d="M9 19L9 11C4.22654 12.5845 4.22655 17.4155 9 19z"/>
<path style="fill:#ffb8b6; stroke:none;" d="M11 11L12 12L11 11z"/>
<path style="fill:#ff2803; stroke:none;" d="M11 17L12 13L13 17L17 17L13 18C26.2546 22.9762 12.2629 0.790758 11 17z"/>
<path style="fill:#ff928e; stroke:none;" d="M27 11L27 19L29 11L27 11z"/>
<path style="fill:#ffa4a2; stroke:none;" d="M1 12L2 13L1 12z"/>
<path style="fill:#ff2803; stroke:none;" d="M2 12L2 18C2.95111 15.7147 2.95111 14.2853 2 12z"/>
<path style="fill:#ff4639; stroke:none;" d="M8 12L8 18C8.95111 15.7147 8.95111 14.2853 8 12z"/>
<path style="fill:#ff3825; stroke:none;" d="M13 12L17 13L17 17L18 12L13 12z"/>
<path style="fill:#ff7e78; stroke:none;" d="M19 12L20 13L19 12z"/>
<path style="fill:#ff5952; stroke:none;" d="M25 12L26 13L25 12z"/>
<path style="fill:#ff2803; stroke:none;" d="M28 12L28 18C28.9511 15.7147 28.9511 14.2853 28 12z"/>
<path style="fill:#ff8a86; stroke:none;" d="M4 13L4 16L4 13z"/>
<path style="fill:#ff3825; stroke:none;" d="M6 13L6 17L6 13z"/>
<path style="fill:#ffa4a2; stroke:none;" d="M10 13L10 16L10 13z"/>
<path style="fill:#ff3825; stroke:none;" d="M12 13L12 19L17 18L13 17L12 13z"/>
<path style="fill:#ff7e78; stroke:none;" d="M29 13L29 17L29 13z"/>
<path style="fill:#ff6861; stroke:none;" d="M1 16L2 17L1 16M11 17L12 18L11 17z"/>
<path style="fill:#ffa4a2; stroke:none;" d="M19 17L20 18L19 17z"/>
<path style="fill:#ff8a86; stroke:none;" d="M25 17L26 18L25 17z"/>
<path style="fill:#ff928e; stroke:none;" d="M18 18L19 19L18 18z"/>
<path style="fill:#ff726c; stroke:none;" d="M24 18L25 19L24 18z"/>
<path style="fill:#ff928e; stroke:none;" d="M7.66667 19.3333L8.33333 19.6667L7.66667 19.3333z"/>
<path style="fill:#ff8a86; stroke:none;" d="M13 19L17 20L13 19z"/>
<path style="fill:#ffa4a2; stroke:none;" d="M4.33333 21.6667L4.66667 22.3333L4.33333 21.6667z"/>
<path style="fill:#ff6861; stroke:none;" d="M5 21L9 22L5 21z"/>
<path style="fill:#ffdddc; stroke:none;" d="M9 21L9 26L11 21L9 21z"/>
<path style="fill:#ff726c; stroke:none;" d="M11 21L20 22L11 21z"/>
<path style="fill:#ffdddc; stroke:none;" d="M20 21L21 26C21.9157 23.6996 21.8793 22.6232 20 21z"/>
<path style="fill:#ff6861; stroke:none;" d="M22 21L26 22L22 21z"/>
<path style="fill:#ffb8b6; stroke:none;" d="M26.3333 21.6667L26.6667 22.3333L26.3333 21.6667z"/>
<path style="fill:#ff2803; stroke:none;" d="M5 22L9 25C8.42197 22.3025 7.73857 22.2107 5 22M11 22C13.7072 25.7497 16.9595 25.1044 20 22L11 22M22 25L26 22C23.2614 22.2107 22.578 22.3025 22 25z"/>
<path style="fill:#ff6861; stroke:none;" d="M11 23L12 24L11 23z"/>
<path style="fill:#ff4639; stroke:none;" d="M13 23L18 24L13 23z"/>
<path style="fill:#ff7e78; stroke:none;" d="M19 23L20 24L19 23z"/>
<path style="fill:#ff5952; stroke:none;" d="M18 24L19 25L18 24M7.66667 25.3333L8.33333 25.6667L7.66667 25.3333z"/>
<path style="fill:#ff726c; stroke:none;" d="M13 25L18 26L13 25z"/>
<path style="fill:#ff5952; stroke:none;" d="M22 25L23 26L22 25z"/>
<path style="fill:#ff9896; stroke:none;" d="M23 25L24 26L23 25z"/>
<path style="fill:#ff8a86; stroke:none;" d="M12 29L19 29C16.9003 26.5966 14.0997 26.5966 12 29z"/>
<path style="fill:#ff2803; stroke:none;" d="M13 28L18 29L13 28z"/>
<path style="fill:#ffa4a2; stroke:none;" d="M14 29L17 30L14 29z"/>
</svg>
