<?xml version="1.0" encoding="utf-8"?>
<!-- Generator: Adobe Illustrator 18.1.0, SVG Export Plug-In . SVG Version: 6.00 Build 0)  -->
<svg version="1.0" id="Layer_1" xmlns="http://www.w3.org/2000/svg" xmlns:xlink="http://www.w3.org/1999/xlink" x="0px" y="0px"
	 viewBox="0 0 41.4 55.2" enable-background="new 0 0 41.4 55.2" xml:space="preserve">
<g>
	<path fill="#594A42" d="M22.6,34.1c-5.2-7.1-2.2-15.6-2.2-15.6s-6,9.3-0.6,16.7c5.4,7.4-0.5,15.2-0.5,15.2S27.8,41.2,22.6,34.1z"/>
	<g>
		<path fill="#BED73B" d="M17.7,28.5c5.4-6.2-11-13-12.7-11.1C3.2,19.4,12.3,34.7,17.7,28.5z"/>
		<path fill="#FFFFFF" d="M13,23.9C9.5,19.5,7,19.8,7,19.8s2.4,0.2,5.4,4.9c1.6,2.6,3.6,3.7,5,4.2c0.1-0.1,0.2-0.2,0.3-0.3
			c0.3-0.3,0.5-0.6,0.7-0.9C16.9,27.2,14.9,26.3,13,23.9z"/>
	</g>
	<g>
		<path fill="#8DC63F" d="M18.9,28C30.9,27.6,22,3.4,18.2,3.5C14.5,3.6,7,28.3,18.9,28z"/>
		<path fill="#FFFFFF" d="M19.2,18.4c1.3-8-1.4-10.4-1.4-10.4s2.2,2.7,0.1,10.5c-1.2,4.3-0.5,7.5,0.4,9.4c0.2,0,0.4,0,0.6,0
			c0.6,0,1.2-0.1,1.7-0.2C19.5,25.9,18.5,22.8,19.2,18.4z"/>
	</g>
	<g>
		<path fill="#6E9F31" d="M20.5,29.6C31.9,38,41.4,9,37.8,6.3C34.3,3.6,9.2,21.1,20.5,29.6z"/>
		<path fill="#FFFFFF" d="M27.8,20.9c7-6.5,6.3-10.7,6.3-10.7s0,4.1-7.6,9.8c-4.2,3.2-5.9,6.6-6.5,9.1c0.2,0.2,0.4,0.3,0.6,0.5
			c0.6,0.4,1.1,0.8,1.7,1C22.6,28.1,23.9,24.5,27.8,20.9z"/>
	</g>
</g>
</svg>
